<svg width="1440" height="1950" viewBox="0 0 1440 1950" fill="none" xmlns="http://www.w3.org/2000/svg">
<g clip-path="url(#clip0_75_317)">
<rect width="1440" height="1950" fill="#111827"/>
<mask id="mask0_75_317" style="mask-type:alpha" maskUnits="userSpaceOnUse" x="0" y="0" width="1440" height="1440">
<rect width="1440" height="1440" fill="url(#paint0_linear_75_317)"/>
</mask>
<g mask="url(#mask0_75_317)">
<g opacity="0.75">
<path d="M0 0V1440" stroke="#1F2937"/>
<path d="M95.9995 0V1440" stroke="#1F2937"/>
<path d="M192 0V1440" stroke="#1F2937"/>
<path d="M288 0V1440" stroke="#1F2937"/>
<path d="M384 0V1440" stroke="#1F2937"/>
<path d="M480 0V1440" stroke="#1F2937"/>
<path d="M576 0V1440" stroke="#1F2937"/>
<path d="M672 0V1440" stroke="#1F2937"/>
<path d="M768 0V1440" stroke="#1F2937"/>
<path d="M864 0V1440" stroke="#1F2937"/>
<path d="M960 0V1440" stroke="#1F2937"/>
<path d="M1056 0V1440" stroke="#1F2937"/>
<path d="M1152 0V1440" stroke="#1F2937"/>
<path d="M1248 0V1440" stroke="#1F2937"/>
<path d="M1344 0V1440" stroke="#1F2937"/>
<path d="M1440 0V1440" stroke="#1F2937"/>
<path d="M0 1440H1440" stroke="#1F2937"/>
<path d="M0 1344H1440" stroke="#1F2937"/>
<path d="M0 1248H1440" stroke="#1F2937"/>
<path d="M0 1152H1440" stroke="#1F2937"/>
<path d="M0 1056H1440" stroke="#1F2937"/>
<path d="M0 960H1440" stroke="#1F2937"/>
<path d="M0 864H1440" stroke="#1F2937"/>
<path d="M0 768H1440" stroke="#1F2937"/>
<path d="M0 672H1440" stroke="#1F2937"/>
<path d="M0 576H1440" stroke="#1F2937"/>
<path d="M0 480H1440" stroke="#1F2937"/>
<path d="M0 384H1440" stroke="#1F2937"/>
<path d="M0 288H1440" stroke="#1F2937"/>
<path d="M0 192H1440" stroke="#1F2937"/>
<path d="M0 96.0002H1440" stroke="#1F2937"/>
<path d="M0 0H1440" stroke="#1F2937"/>
<rect x="276.686" y="384" width="16" height="16" transform="rotate(-45 276.686 384)" fill="#1F2937"/>
<rect x="84.6863" y="576" width="16" height="16" transform="rotate(-45 84.6863 576)" fill="#1F2937"/>
<rect x="181" y="960.313" width="16" height="16" transform="rotate(-45 181 960.313)" fill="#1F2937"/>
<rect x="565" y="768.313" width="16" height="16" transform="rotate(-45 565 768.313)" fill="#1F2937"/>
<rect x="1237" y="288.314" width="16" height="16" transform="rotate(-45 1237 288.314)" fill="#1F2937"/>
<rect x="1045" y="576.314" width="16" height="16" transform="rotate(-45 1045 576.314)" fill="#1F2937"/>
<rect x="1333" y="960.313" width="16" height="16" transform="rotate(-45 1333 960.313)" fill="#1F2937"/>
<rect x="1045" y="192.314" width="16" height="16" transform="rotate(-45 1045 192.314)" fill="#1F2937"/>
</g>
</g>
<g filter="url(#filter0_f_75_317)">
<circle cx="1464" cy="787" r="216" fill="url(#paint1_radial_75_317)" fill-opacity="0.5"/>
</g>
<g filter="url(#filter1_f_75_317)">
<ellipse cx="1212.5" cy="50" rx="330.5" ry="204" fill="url(#paint2_radial_75_317)" fill-opacity="0.5"/>
</g>
<g filter="url(#filter2_f_75_317)">
<circle cx="15" cy="433" r="216" fill="url(#paint3_radial_75_317)" fill-opacity="0.5"/>
</g>
<g filter="url(#filter3_di_75_317)">
<ellipse cx="680" cy="1449.5" rx="1164" ry="500.5" fill="#111827"/>
</g>
<rect y="1421" width="1440" height="594" fill="#111827"/>
</g>
<defs>
<filter id="filter0_f_75_317" x="998" y="321" width="932" height="932" filterUnits="userSpaceOnUse" color-interpolation-filters="sRGB">
<feFlood flood-opacity="0" result="BackgroundImageFix"/>
<feBlend mode="normal" in="SourceGraphic" in2="BackgroundImageFix" result="shape"/>
<feGaussianBlur stdDeviation="125" result="effect1_foregroundBlur_75_317"/>
</filter>
<filter id="filter1_f_75_317" x="632" y="-404" width="1161" height="908" filterUnits="userSpaceOnUse" color-interpolation-filters="sRGB">
<feFlood flood-opacity="0" result="BackgroundImageFix"/>
<feBlend mode="normal" in="SourceGraphic" in2="BackgroundImageFix" result="shape"/>
<feGaussianBlur stdDeviation="125" result="effect1_foregroundBlur_75_317"/>
</filter>
<filter id="filter2_f_75_317" x="-451" y="-33" width="932" height="932" filterUnits="userSpaceOnUse" color-interpolation-filters="sRGB">
<feFlood flood-opacity="0" result="BackgroundImageFix"/>
<feBlend mode="normal" in="SourceGraphic" in2="BackgroundImageFix" result="shape"/>
<feGaussianBlur stdDeviation="125" result="effect1_foregroundBlur_75_317"/>
</filter>
<filter id="filter3_di_75_317" x="-626.9" y="797.1" width="2613.8" height="1286.8" filterUnits="userSpaceOnUse" color-interpolation-filters="sRGB">
<feFlood flood-opacity="0" result="BackgroundImageFix"/>
<feColorMatrix in="SourceAlpha" type="matrix" values="0 0 0 0 0 0 0 0 0 0 0 0 0 0 0 0 0 0 127 0" result="hardAlpha"/>
<feOffset dy="-9"/>
<feGaussianBlur stdDeviation="71.45"/>
<feComposite in2="hardAlpha" operator="out"/>
<feColorMatrix type="matrix" values="0 0 0 0 0.419608 0 0 0 0 0.447059 0 0 0 0 0.501961 0 0 0 0.25 0"/>
<feBlend mode="normal" in2="BackgroundImageFix" result="effect1_dropShadow_75_317"/>
<feBlend mode="normal" in="SourceGraphic" in2="effect1_dropShadow_75_317" result="shape"/>
<feColorMatrix in="SourceAlpha" type="matrix" values="0 0 0 0 0 0 0 0 0 0 0 0 0 0 0 0 0 0 127 0" result="hardAlpha"/>
<feOffset dy="40"/>
<feGaussianBlur stdDeviation="75.6"/>
<feComposite in2="hardAlpha" operator="arithmetic" k2="-1" k3="1"/>
<feColorMatrix type="matrix" values="0 0 0 0 0.419608 0 0 0 0 0.447059 0 0 0 0 0.501961 0 0 0 0.3 0"/>
<feBlend mode="normal" in2="shape" result="effect2_innerShadow_75_317"/>
</filter>
<linearGradient id="paint0_linear_75_317" x1="720" y1="0" x2="720" y2="997" gradientUnits="userSpaceOnUse">
<stop/>
<stop offset="1" stop-color="#737373" stop-opacity="0"/>
</linearGradient>
<radialGradient id="paint1_radial_75_317" cx="0" cy="0" r="1" gradientUnits="userSpaceOnUse" gradientTransform="translate(1464 787) rotate(90) scale(216)">
<stop stop-color="#00226B"/>
<stop offset="1" stop-color="#0043D1" stop-opacity="0"/>
</radialGradient>
<radialGradient id="paint2_radial_75_317" cx="0" cy="0" r="1" gradientUnits="userSpaceOnUse" gradientTransform="translate(1212.5 50) rotate(90) scale(204 330.5)">
<stop stop-color="#00226B"/>
<stop offset="1" stop-color="#0043D1" stop-opacity="0"/>
</radialGradient>
<radialGradient id="paint3_radial_75_317" cx="0" cy="0" r="1" gradientUnits="userSpaceOnUse" gradientTransform="translate(15 433) rotate(90) scale(216)">
<stop stop-color="#00226B"/>
<stop offset="1" stop-color="#0043D1" stop-opacity="0"/>
</radialGradient>
<clipPath id="clip0_75_317">
<rect width="1440" height="1950" fill="white"/>
</clipPath>
</defs>
</svg>
